<svg width="386" height="386" viewBox="0 0 386 386" fill="none" xmlns="http://www.w3.org/2000/svg">
<g clip-path="url(#clip0_6_2)">
<path d="M381.658 183.472L201.878 3.69102C199.448 1.26102 196.26 0.0700205 193.084 0.0940205C192.988 0.0940205 192.916 0.0460205 192.819 0.0460205H12.364C5.723 0.0460205 0.334 5.43602 0.334 12.076C0.334 12.172 0.382 12.244 0.382 12.341C0.37 15.517 1.561 18.705 3.979 21.135L175.363 192.519L3.618 364.263C-1.206 369.087 -1.206 376.907 3.618 381.731C6.481 384.594 10.367 385.545 14.084 385.015H191.062C194.779 385.544 198.665 384.594 201.528 381.731L381.646 201.613C384.148 199.111 385.291 195.814 385.195 192.53C385.292 189.27 384.149 185.974 381.658 183.472ZM187.381 360.955H41.862L201.191 201.626C203.693 199.124 204.836 195.827 204.74 192.543C204.836 189.271 203.693 185.974 201.191 183.472L41.838 24.106H187.417L355.829 192.518L187.381 360.955Z" fill="white"/>
</g>
<defs>
<clipPath id="clip0_6_2">
<rect width="385.201" height="385.201" fill="white"/>
</clipPath>
</defs>
</svg>
