<svg width="386" height="386" viewBox="0 0 386 386" fill="none" xmlns="http://www.w3.org/2000/svg">
<g clip-path="url(#clip0_6_2)">
<path d="M3.543 201.729L183.323 381.51C185.753 383.94 188.941 385.131 192.117 385.107C192.213 385.107 192.285 385.155 192.382 385.155H372.837C379.478 385.155 384.867 379.765 384.867 373.125C384.867 373.029 384.819 372.957 384.819 372.86C384.831 369.684 383.64 366.496 381.222 364.066L209.838 192.682L381.583 20.938C386.407 16.114 386.407 8.29399 381.583 3.46999C378.72 0.606986 374.834 -0.344041 371.117 0.185959H194.139C190.422 -0.343041 186.536 0.606986 183.673 3.46999L3.55499 183.588C1.05299 186.09 -0.0900186 189.387 0.00598145 192.671C-0.0910186 195.931 1.052 199.227 3.543 201.729ZM197.82 24.246H343.339L184.01 183.575C181.508 186.077 180.365 189.374 180.461 192.658C180.365 195.93 181.508 199.227 184.01 201.729L343.363 361.095H197.784L29.372 192.683L197.82 24.246Z" fill="white"/>
</g>
<defs>
<clipPath id="clip0_6_2">
<rect width="385.201" height="385.201" fill="white" transform="translate(385.201 385.201) rotate(-180)"/>
</clipPath>
</defs>
</svg>
