<svg width="200" height="200" viewBox="0 0 200 200" fill="none" xmlns="http://www.w3.org/2000/svg">
<g clip-path="url(#clip0_5_2)">
<path d="M79.6583 5.74167C70.525 7.775 61.4833 10.6 53.0083 14.8667C53.2 22.35 53.6833 29.5167 54.6667 36.8C51.375 38.9083 47.9167 40.7167 44.85 43.1833C41.725 45.5833 38.5333 47.8833 35.7083 50.6917C30.0583 46.9583 24.075 43.45 17.9167 40.35C11.275 47.4917 5.06667 55.2 0 63.8333C3.81667 70.0083 7.8 75.7917 12.1 81.2833H12.2167V134.25C12.3167 134.25 12.4083 134.25 12.5083 134.275L44.975 137.408C46.675 137.575 48.0083 138.942 48.125 140.65L49.125 154.983L77.45 157L79.4 143.775C79.65 142.058 81.125 140.792 82.8583 140.792H117.117C118.85 140.792 120.325 142.058 120.575 143.775L122.525 157L150.85 154.983L151.85 140.65C151.967 138.942 153.3 137.575 155 137.408L187.458 134.275C187.558 134.275 187.65 134.25 187.75 134.25V130.025H187.767V81.2917H187.883C192.183 75.8 196.167 70.0167 199.983 63.8417C194.917 55.2083 188.7 47.5 182.058 40.35C175.9 43.45 169.917 46.9583 164.267 50.6917C161.442 47.8833 158.258 45.5833 155.133 43.1833C152.058 40.7167 148.6 38.9083 145.317 36.8C146.292 29.5167 146.775 22.35 146.975 14.8667C138.5 10.6 129.467 7.775 120.325 5.74167C116.675 11.875 113.342 18.5167 110.433 25.0083C106.983 24.4333 103.525 24.225 100.05 24.1833H99.9167C96.4417 24.225 92.9833 24.4333 89.5333 25.0083C86.625 18.5167 83.2917 11.875 79.6333 5.74167L79.6417 5.73334L79.6583 5.74167ZM53.9667 83.2833C64.775 83.2833 73.5417 92.0417 73.5417 102.85C73.5417 113.658 64.775 122.417 53.9667 122.417C43.1667 122.417 34.4 113.658 34.4 102.85C34.4 92.0417 43.1583 83.2833 53.9667 83.2833V83.2833ZM146.033 83.2833C156.833 83.2833 165.6 92.0417 165.6 102.85C165.6 113.658 156.842 122.417 146.033 122.417C135.225 122.417 126.458 113.658 126.458 102.85C126.458 92.0417 135.217 83.2833 146.033 83.2833ZM55.8417 91.0333C48.6667 91.0333 42.85 96.85 42.85 104.025C42.85 111.2 48.6667 117.008 55.8417 117.008C63.0167 117.008 68.8333 111.192 68.8333 104.025C68.8333 96.8583 63.025 91.0333 55.8417 91.0333ZM144.15 91.0333C136.975 91.0333 131.167 96.85 131.167 104.025C131.167 111.2 136.975 117.008 144.15 117.008C151.325 117.008 157.142 111.192 157.142 104.025C157.142 96.8583 151.333 91.0333 144.15 91.0333ZM100 94.8083C103.475 94.8083 106.308 97.375 106.308 100.533V118.55C106.308 121.708 103.483 124.275 100 124.275C96.5167 124.275 93.7 121.708 93.7 118.55V100.533C93.7 97.375 96.525 94.8083 100 94.8083ZM12.1667 141.258C12.1833 144.4 12.2167 147.833 12.2167 148.517C12.2167 179.358 51.3333 194.175 99.9333 194.35H100.05C148.65 194.183 187.758 179.358 187.758 148.517C187.758 147.817 187.8 144.392 187.817 141.258L158.633 144.075L157.625 158.483C157.5 160.217 156.125 161.608 154.383 161.733L119.542 164.2C117.825 164.2 116.342 162.942 116.083 161.217L114.1 147.767H85.8833L83.9 161.217C83.6333 163.025 82.0167 164.325 80.1917 164.192L45.6 161.725C43.8667 161.6 42.475 160.217 42.3583 158.483L41.3583 144.075L12.1583 141.267L12.1667 141.258Z" fill="white"/>
</g>
<defs>
<clipPath id="clip0_5_2">
<rect width="200" height="200" fill="white"/>
</clipPath>
</defs>
</svg>
