<svg width="195" height="170" viewBox="0 0 195 170" fill="none" xmlns="http://www.w3.org/2000/svg">
<path d="M46.0118 60.45H82.7906V62.9985H49.3832V82.179H80.7984V84.7274H49.3832V105.786H83.1737V108.334H46.0118V60.45ZM86.0853 60.45H89.9931L107.31 81.5083L125.01 60.45L149.084 33.7012L109.532 83.7215L129.913 108.334H125.852L107.31 85.9346L88.6905 108.334H84.7061L105.241 83.7215L86.0853 60.45ZM131.369 62.9985V60.45H173.282V62.9985H153.973V108.334H150.601V62.9985H131.369ZM0 60.45H4.21424L62.3261 136.26L38.3112 108.334L3.52463 64.0715L3.37139 108.334H0V60.45ZM172.942 105.017C172.253 105.017 171.737 104.551 171.737 103.95C171.737 103.349 172.253 102.884 172.942 102.884C173.639 102.884 174.147 103.349 174.147 103.95C174.147 104.551 173.639 105.017 172.942 105.017ZM176.255 102.211H178.059C178.083 103.063 178.797 103.635 179.846 103.635C181.019 103.635 181.683 103.02 181.683 101.867V94.5659H183.52V101.874C183.52 103.95 182.142 105.146 179.863 105.146C177.723 105.146 176.255 103.986 176.255 102.211ZM185.923 102.118H187.743C187.899 103.098 188.998 103.721 190.58 103.721C192.056 103.721 193.139 103.055 193.139 102.139C193.139 101.352 192.45 100.879 190.884 100.557L189.358 100.235C187.218 99.7985 186.242 98.8965 186.242 97.379C186.242 95.5394 187.964 94.3154 190.547 94.3154C192.95 94.3154 194.705 95.5394 194.811 97.2788H193.024C192.852 96.3268 191.9 95.7327 190.523 95.7327C189.071 95.7327 188.104 96.3411 188.104 97.2717C188.104 98.009 188.727 98.4313 190.269 98.7462L191.572 99.0254C194 99.5193 195 100.378 195 101.932C195 103.907 193.245 105.146 190.441 105.146C187.817 105.146 186.054 103.964 185.923 102.118Z" fill="white"/>
</svg>
