<svg width="800" height="200" viewBox="0 0 800 200" fill="none" xmlns="http://www.w3.org/2000/svg">
<g clip-path="url(#clip0_3_9)">
<path d="M399.094 49.9999C367.855 49.9999 345.331 72.4998 345.331 106.25C345.331 140 370.684 162.5 401.923 162.5C420.798 162.5 437.436 154.25 447.736 140.343L426.089 126.531C420.373 133.437 411.686 137.468 401.923 137.468C388.37 137.468 376.853 129.656 372.581 117.156H451.867C452.491 113.656 452.858 110.031 452.858 106.218C452.858 72.4998 430.334 49.9999 399.094 49.9999ZM372.327 95.3123C375.863 82.8436 385.541 74.9998 399.066 74.9998C412.62 74.9998 422.298 82.8436 425.806 95.3123H372.327ZM703.792 49.9999C672.552 49.9999 650.028 72.4998 650.028 106.25C650.028 140 675.381 162.5 706.622 162.5C725.495 162.5 742.133 154.25 752.433 140.343L730.786 126.531C725.07 133.437 716.384 137.468 706.622 137.468C693.067 137.468 681.55 129.656 677.278 117.156H756.564C757.187 113.656 757.555 110.031 757.555 106.218C757.555 72.4998 735.031 49.9999 703.792 49.9999ZM677.052 95.3123C680.589 82.8436 690.266 74.9998 703.792 74.9998C717.345 74.9998 727.023 82.8436 730.531 95.3123H677.052ZM566.609 106.25C566.609 125 577.702 137.5 594.906 137.5C606.564 137.5 615.308 131.656 619.808 122.125L641.539 135.968C632.541 152.531 615.677 162.5 594.906 162.5C563.639 162.5 541.144 140 541.144 106.25C541.144 72.4998 563.667 49.9999 594.906 49.9999C615.677 49.9999 632.512 59.9686 641.539 76.5311L619.808 90.3747C615.308 80.8435 606.564 74.9998 594.906 74.9998C577.731 74.9998 566.609 87.4997 566.609 106.25ZM800 15.625V159.374H774.533V15.625H800ZM104.556 0L209.111 200H0L104.556 0ZM365.959 15.625L287.55 165.625L209.139 15.625H238.541L287.55 109.375L336.559 15.625H365.959ZM532.655 53.1248V83.406C529.825 82.4997 526.825 81.8748 523.6 81.8748C507.159 81.8748 495.303 94.3748 495.303 113.125V159.374H469.836V53.1248H495.303V81.8748C495.303 65.9998 512.027 53.1248 532.655 53.1248Z" fill="white"/>
</g>
<defs>
<clipPath id="clip0_3_9">
<rect width="800" height="200" fill="white"/>
</clipPath>
</defs>
</svg>
